<?xml version="1.0" standalone="no"?>
<!DOCTYPE svg PUBLIC "-//W3C//DTD SVG 20010904//EN"
 "http://www.w3.org/TR/2001/REC-SVG-20010904/DTD/svg10.dtd">
<svg version="1.0" xmlns="http://www.w3.org/2000/svg"
 width="178.000000pt" height="178.000000pt" viewBox="0 0 178.000000 178.000000"
 preserveAspectRatio="xMidYMid meet">
<metadata>
Created by potrace 1.11, written by Peter Selinger 2001-2013
</metadata>
<g transform="translate(0.000000,178.000000) scale(0.100000,-0.100000)"
fill="#000000" stroke="none">
<path d="M328 1759 c-175 -26 -266 -200 -189 -363 25 -51 39 -66 83 -93 29
-18 67 -35 83 -38 17 -3 278 -5 582 -5 597 0 597 0 670 56 76 58 111 176 79
272 -20 58 -64 112 -121 144 l-40 23 -551 5 c-303 3 -571 2 -596 -1z"/>
<path d="M565 1139 c-261 -6 -325 -12 -325 -30 0 -5 -5 -9 -12 -9 -15 0 -75
-66 -94 -102 -23 -44 -28 -137 -10 -186 29 -81 91 -140 168 -163 19 -5 266 -9
578 -9 613 0 617 0 688 68 57 54 77 103 76 188 0 101 -37 162 -129 215 -36 21
-54 23 -200 26 -374 7 -484 8 -740 2z"/>
<path d="M880 520 l-555 -5 -47 -23 c-78 -39 -137 -129 -138 -213 0 -63 28
-137 69 -178 80 -80 41 -75 651 -81 564 -5 640 -2 678 25 125 88 165 217 105
336 -33 64 -101 119 -165 134 -27 6 -249 8 -598 5z"/>
</g>
</svg>
